<?xml version="1.0" encoding="UTF-8"?><svg xmlns="http://www.w3.org/2000/svg" width="1416" height="1416" style="font-family: Arial, sans-serif; width: 1416px; height: 834px;"><g class="path" style="cursor: move;"><path stroke="black" stroke-width="1.5" fill="none" d="M218.21,142.93L544.68,749.10"></path><path stroke="black" stroke-width="1.5" fill="white" class="arrowfront" d="M-1,0L15,5L15,-5Z" transform="translate(544.6809834678431,749.0961043187517) rotate(241.69365307327172)"></path></g><g class="path" style="cursor: move;"><path stroke="black" stroke-width="1.5" fill="none" d="M208.37,144.34L170.24,687.71"></path><path stroke="black" stroke-width="1.5" fill="white" class="arrowfront" d="M-1,0L15,5L15,-5Z" transform="translate(170.24360962370497,687.7059645190653) rotate(-85.9865945174062)"></path></g><g class="path" style="cursor: move;"><path stroke="black" stroke-width="1.5" fill="none" d="M229.12,126.04L505.87,71.29"></path><path stroke="black" stroke-width="1.5" fill="white" class="arrowfront" d="M-1,0L15,5L15,-5Z" transform="translate(505.86742624275337,71.28679761772797) rotate(168.8081193221834)"></path></g><g class="path" style="cursor: move;"><path stroke="black" stroke-width="1.5" fill="none" d="M1107.93,150.23L234.63,129.90"></path><path stroke="black" stroke-width="1.5" fill="white" class="arrowfront" d="M-1,0L15,5L15,-5Z" transform="translate(234.6287657701942,129.8969548325482) rotate(1.3334609831205748)"></path></g><g class="path" style="cursor: move;"><path stroke="black" stroke-width="1.5" fill="none" d="M1140.87,162.11L1352.63,383.85"></path><path stroke="black" stroke-width="1.5" fill="white" class="arrowfront" d="M-1,0L15,5L15,-5Z" transform="translate(1352.6318354714695,383.8474273384537) rotate(226.31926974394503)"></path></g><g class="path" style="cursor: move;"><path stroke="black" stroke-width="1.5" fill="none" d="M1108.17,148.20L555.04,70.19"></path><path stroke="black" stroke-width="1.5" fill="white" class="arrowfront" d="M-1,0L15,5L15,-5Z" transform="translate(555.039162690299,70.19064387434454) rotate(8.027172480353954)"></path></g><g class="path" style="cursor: move;"><path stroke="black" stroke-width="1.5" fill="none" d="M1292.98,270.33L1357.06,381.26"></path><path stroke="black" stroke-width="1.5" fill="white" class="arrowfront" d="M-1,0L15,5L15,-5Z" transform="translate(1357.05637219702,381.262705669047) rotate(239.98906843994263)"></path></g><g class="path" style="cursor: move;"><path stroke="black" stroke-width="1.5" fill="none" d="M1264.40,252.79L554.40,72.48"></path><path stroke="black" stroke-width="1.5" fill="white" class="arrowfront" d="M-1,0L15,5L15,-5Z" transform="translate(554.3989632740868,72.4762836478568) rotate(14.249302047997517)"></path></g><g class="path" style="cursor: move;"><path stroke="black" stroke-width="1.5" fill="none" d="M555.31,751.88L531.16,87.11"></path><path stroke="black" stroke-width="1.5" fill="white" class="arrowfront" d="M-1,0L15,5L15,-5Z" transform="translate(531.1626465887189,87.11196513321181) rotate(87.9200916636516)"></path></g><g class="path" style="cursor: move;"><path stroke="black" stroke-width="1.5" fill="none" d="M1351.11,392.33L553.21,75.05"></path><path stroke="black" stroke-width="1.5" fill="white" class="arrowfront" d="M-1,0L15,5L15,-5Z" transform="translate(553.2126238796649,75.0466606349049) rotate(21.68516852140259)"></path></g><g class="path" style="cursor: move;"><path stroke="black" stroke-width="1.5" fill="none" d="M900.69,82.49L1104.19,144.45"></path><path stroke="black" stroke-width="1.5" fill="white" class="arrowfront" d="M-1,0L15,5L15,-5Z" transform="translate(1104.194649383824,144.45457915262102) rotate(196.9358576738308)"></path></g><g class="path" style="cursor: move;"><path stroke="black" stroke-width="1.5" fill="none" d="M899.54,84.49L1261.20,248.30"></path><path stroke="black" stroke-width="1.5" fill="white" class="arrowfront" d="M-1,0L15,5L15,-5Z" transform="translate(1261.1970551912648,248.2956761996618) rotate(204.36673863638777)"></path></g><g class="path" style="cursor: move;"><path stroke="black" stroke-width="1.5" fill="none" d="M897.69,86.66L1349.04,387.03"></path><path stroke="black" stroke-width="1.5" fill="white" class="arrowfront" d="M-1,0L15,5L15,-5Z" transform="translate(1349.0423916911805,387.0258000715883) rotate(213.6425399180221)"></path></g><g class="path" style="cursor: move;"><path stroke="black" stroke-width="1.5" fill="none" d="M867.76,88.25L186.57,693.92"></path><path stroke="black" stroke-width="1.5" fill="white" class="arrowfront" d="M-1,0L15,5L15,-5Z" transform="translate(186.57236351161032,693.9245883786208) rotate(-41.64168915109689)"></path></g><g class="path" style="cursor: move;"><path stroke="black" stroke-width="1.5" fill="none" d="M861.78,77.03L555.30,67.78"></path><path stroke="black" stroke-width="1.5" fill="white" class="arrowfront" d="M-1,0L15,5L15,-5Z" transform="translate(555.2985572125496,67.78207826105269) rotate(1.7274658474887412)"></path></g><g class="path" style="cursor: move;"><path stroke="black" stroke-width="1.5" fill="none" d="M177.45,694.21L518.69,84.75"></path><path stroke="black" stroke-width="1.5" fill="white" class="arrowfront" d="M-1,0L15,5L15,-5Z" transform="translate(518.6909674858063,84.74890396229515) rotate(119.24510175633706)"></path></g><g transform="translate(209.61288831539,129.36763291643487)" style="cursor: move;"><path fill-opacity="0.7" stroke-width="2" z-index="1" d="M 0 0 m 20, 0 a 20,15 0 1,1 -40,0 a 20,15 0 1,1 40,0" fill="#00a2e0" stroke="#00a2e0"></path><rect class="textbg" fill="#ffffff" width="26.796875" height="17" x="-13.34375" y="21"></rect><text class="nodelabel" y="35" text-anchor="middle">age</text></g><g transform="translate(1127.9484621458698,150.6487962042378)" style="cursor: move;"><path fill-opacity="0.7" stroke-width="2" z-index="1" d="M 0 0 m 20, 0 a 20,15 0 1,1 -40,0 a 20,15 0 1,1 40,0" fill="#00a2e0" stroke="#00a2e0"></path><rect class="textbg" fill="#ffffff" width="94.375" height="17" x="-46.6875" y="21"></rect><text class="nodelabel" y="35" text-anchor="middle">cons.conf.idx</text></g><g transform="translate(1283.6190127689079,257.05461264325265)" style="cursor: move;"><path fill-opacity="0.7" stroke-width="2" z-index="1" d="M 0 0 m 20, 0 a 20,15 0 1,1 -40,0 a 20,15 0 1,1 40,0" fill="#00a2e0" stroke="#00a2e0"></path><rect class="textbg" fill="#ffffff" width="98.8125" height="17" x="-48.90625" y="21"></rect><text class="nodelabel" y="35" text-anchor="middle">cons.price.idx</text></g><g transform="translate(555.9496947402885,766.8772635814888)" style="cursor: move;"><path fill-opacity="0.7" stroke-width="2" z-index="1" d="M 0 0 m 20, 0 a 20,15 0 1,1 -40,0 a 20,15 0 1,1 40,0" fill="#00a2e0" stroke="#00a2e0"></path><rect class="textbg" fill="#ffffff" width="48.59375" height="17" x="-24.015625" y="21"></rect><text class="nodelabel" y="35" text-anchor="middle">default</text></g><g transform="translate(1369.2981530343009,398.62061190559416)" style="cursor: move;"><path fill-opacity="0.7" stroke-width="2" z-index="1" d="M 0 0 m 20, 0 a 20,15 0 1,1 -40,0 a 20,15 0 1,1 40,0" fill="#00a2e0" stroke="#00a2e0"></path><rect class="textbg" fill="#ffffff" width="89.03125" height="17" x="-44.453125" y="21"></rect><text class="nodelabel" y="35" text-anchor="middle">emp.var.rate</text></g><g transform="translate(881.7717774396702,77.55262665047982)" style="cursor: move;"><path fill-opacity="0.7" stroke-width="2" z-index="1" d="M 0 0 m 20, 0 a 20,15 0 1,1 -40,0 a 20,15 0 1,1 40,0" fill="#00a2e0" stroke="#00a2e0"></path><rect class="textbg" fill="#ffffff" width="87.265625" height="17" x="-43.578125" y="21"></rect><text class="nodelabel" y="35" text-anchor="middle">nr.employed</text></g><g transform="translate(168.58344086435673,707.6601135632545)" style="cursor: move;"><path fill-opacity="0.7" stroke-width="2" z-index="1" d="M 0 0 m 20, 0 a 20,15 0 1,1 -40,0 a 20,15 0 1,1 40,0" fill="#00a2e0" stroke="#00a2e0"></path><rect class="textbg" fill="#ffffff" width="41.90625" height="17" x="-20.890625" y="21"></rect><text class="nodelabel" y="35" text-anchor="middle">single</text></g><g transform="translate(530.3035384176928,67.12273641851105)" style="cursor: move;"><path fill-opacity="0.7" stroke-width="2" z-index="1" d="M 0 0 m 20, 0 a 20,15 0 1,1 -40,0 a 20,15 0 1,1 40,0" fill="#00a2e0" stroke="#000000"></path><rect class="textbg" fill="#ffffff" width="9" height="17" x="-4" y="21"></rect><text class="nodelabel" y="35" text-anchor="middle">y</text><path d="M-2,-6L2,-6L2,6L-2,6Z" fill="#000000"></path></g></svg>