<?xml version="1.0" encoding="UTF-8"?><svg xmlns="http://www.w3.org/2000/svg" width="1433" height="1433" style="font-family: Arial, sans-serif; width: 1433px; height: 883px;"><g class="path" style="cursor: move;"><path stroke="black" stroke-width="1.5" fill="none" d="M293.86,149.10L564.95,805.40"></path><path stroke="black" stroke-width="1.5" fill="white" class="arrowfront" d="M-1,0L15,5L15,-5Z" transform="translate(564.9471109470433,805.4010017674182) rotate(247.55702464023912)"></path></g><g class="path" style="cursor: move;"><path stroke="black" stroke-width="1.5" fill="none" d="M286.04,149.98L254.27,740.03"></path><path stroke="black" stroke-width="1.5" fill="white" class="arrowfront" d="M-1,0L15,5L15,-5Z" transform="translate(254.27419346435116,740.0269837713479) rotate(-86.91797802952898)"></path></g><g class="path" style="cursor: move;"><path stroke="black" stroke-width="1.5" fill="none" d="M306.18,130.74L528.68,73.07"></path><path stroke="black" stroke-width="1.5" fill="white" class="arrowfront" d="M-1,0L15,5L15,-5Z" transform="translate(528.6838796111302,73.06937219477226) rotate(165.4686849689826)"></path></g><g class="path" style="cursor: move;"><path stroke="black" stroke-width="1.5" fill="none" d="M1028.01,157.47L311.99,135.66"></path><path stroke="black" stroke-width="1.5" fill="white" class="arrowfront" d="M-1,0L15,5L15,-5Z" transform="translate(311.9862546993914,135.6644819006207) rotate(1.7441955770768027)"></path></g><g class="path" style="cursor: move;"><path stroke="black" stroke-width="1.5" fill="none" d="M1058.92,170.58L1233.80,409.64"></path><path stroke="black" stroke-width="1.5" fill="white" class="arrowfront" d="M-1,0L15,5L15,-5Z" transform="translate(1233.8042858125095,409.6397259358009) rotate(233.81203348909418)"></path></g><g class="path" style="cursor: move;"><path stroke="black" stroke-width="1.5" fill="none" d="M1028.42,154.85L577.27,71.67"></path><path stroke="black" stroke-width="1.5" fill="white" class="arrowfront" d="M-1,0L15,5L15,-5Z" transform="translate(577.2675296296248,71.67094669194032) rotate(10.446475173178136)"></path></g><g class="path" style="cursor: move;"><path stroke="black" stroke-width="1.5" fill="none" d="M1184.54,286.91L1238.08,407.70"></path><path stroke="black" stroke-width="1.5" fill="white" class="arrowfront" d="M-1,0L15,5L15,-5Z" transform="translate(1238.080778743965,407.6973952702134) rotate(246.09331047015849)"></path></g><g class="path" style="cursor: move;"><path stroke="black" stroke-width="1.5" fill="none" d="M1158.30,267.60L576.25,74.52"></path><path stroke="black" stroke-width="1.5" fill="white" class="arrowfront" d="M-1,0L15,5L15,-5Z" transform="translate(576.250245167372,74.51668126034724) rotate(18.352071750603653)"></path></g><g class="path" style="cursor: move;"><path stroke="black" stroke-width="1.5" fill="none" d="M573.51,809.00L553.41,87.72"></path><path stroke="black" stroke-width="1.5" fill="white" class="arrowfront" d="M-1,0L15,5L15,-5Z" transform="translate(553.4066089735817,87.7212782308492) rotate(88.40381316612772)"></path></g><g class="path" style="cursor: move;"><path stroke="black" stroke-width="1.5" fill="none" d="M1230.82,418.27L574.49,77.51"></path><path stroke="black" stroke-width="1.5" fill="white" class="arrowfront" d="M-1,0L15,5L15,-5Z" transform="translate(574.4867760690323,77.50717706509211) rotate(27.438065411251124)"></path></g><g class="path" style="cursor: move;"><path stroke="black" stroke-width="1.5" fill="none" d="M862.23,85.17L1025.03,150.22"></path><path stroke="black" stroke-width="1.5" fill="white" class="arrowfront" d="M-1,0L15,5L15,-5Z" transform="translate(1025.0290092904622,150.22431808064462) rotate(201.78143106025922)"></path></g><g class="path" style="cursor: move;"><path stroke="black" stroke-width="1.5" fill="none" d="M860.59,87.42L1155.96,262.32"></path><path stroke="black" stroke-width="1.5" fill="white" class="arrowfront" d="M-1,0L15,5L15,-5Z" transform="translate(1155.9552447554283,262.321979006978) rotate(210.63238381417327)"></path></g><g class="path" style="cursor: move;"><path stroke="black" stroke-width="1.5" fill="none" d="M858.22,89.57L1229.77,412.45"></path><path stroke="black" stroke-width="1.5" fill="white" class="arrowfront" d="M-1,0L15,5L15,-5Z" transform="translate(1229.7687053889022,412.44838469763374) rotate(220.990852865683)"></path></g><g class="path" style="cursor: move;"><path stroke="black" stroke-width="1.5" fill="none" d="M831.94,90.97L268.61,744.51"></path><path stroke="black" stroke-width="1.5" fill="white" class="arrowfront" d="M-1,0L15,5L15,-5Z" transform="translate(268.6103869256163,744.5117819703258) rotate(-49.24003528724088)"></path></g><g class="path" style="cursor: move;"><path stroke="black" stroke-width="1.5" fill="none" d="M823.98,78.29L577.76,68.61"></path><path stroke="black" stroke-width="1.5" fill="white" class="arrowfront" d="M-1,0L15,5L15,-5Z" transform="translate(577.7616297250232,68.60946010313046) rotate(2.252525431136634)"></path></g><g class="path" style="cursor: move;"><path stroke="black" stroke-width="1.5" fill="none" d="M260.10,745.97L543.39,86.22"></path><path stroke="black" stroke-width="1.5" fill="white" class="arrowfront" d="M-1,0L15,5L15,-5Z" transform="translate(543.3908366817594,86.21650779892161) rotate(113.23813591224517)"></path></g><g class="path" style="cursor: move;"><path stroke="black" stroke-width="1.5" fill="none" d="M289.64,149.87L385.48,788.20"></path><path stroke="black" stroke-width="1.5" fill="white" class="arrowfront" d="M-1,0L15,5L15,-5Z" transform="translate(385.483540466379,788.2038830675118) rotate(261.46116321655285)"></path></g><g class="path" style="cursor: move;"><path stroke="black" stroke-width="1.5" fill="none" d="M382.20,793.88L160.97,251.62"></path><path stroke="black" stroke-width="1.5" fill="white" class="arrowfront" d="M-1,0L15,5L15,-5Z" transform="translate(160.97092442356706,251.6238162688585) rotate(67.8057056031181)"></path></g><g class="path" style="cursor: move;"><path stroke="black" stroke-width="1.5" fill="none" d="M155.32,247.80L248.58,740.32"></path><path stroke="black" stroke-width="1.5" fill="white" class="arrowfront" d="M-1,0L15,5L15,-5Z" transform="translate(248.5817205624484,740.3242971251578) rotate(259.2781027859438)"></path></g><g class="path" style="cursor: move;"><path stroke="black" stroke-width="1.5" fill="none" d="M162.58,245.73L560.22,807.42"></path><path stroke="black" stroke-width="1.5" fill="white" class="arrowfront" d="M-1,0L15,5L15,-5Z" transform="translate(560.2218807823657,807.4217733694142) rotate(234.7039605265796)"></path></g><g class="path" style="cursor: move;"><path stroke="black" stroke-width="1.5" fill="none" d="M408.92,809.53L549.10,822.09"></path><path stroke="black" stroke-width="1.5" fill="white" class="arrowfront" d="M-1,0L15,5L15,-5Z" transform="translate(549.0989515927056,822.092694274098) rotate(185.12279580942982)"></path></g><g class="path" style="cursor: move;"><path stroke="black" stroke-width="1.5" fill="none" d="M170.03,226.50L530.01,75.92"></path><path stroke="black" stroke-width="1.5" fill="white" class="arrowfront" d="M-1,0L15,5L15,-5Z" transform="translate(530.0109127851987,75.91763931985213) rotate(157.29935747944776)"></path></g><g class="path" style="cursor: move;"><path stroke="black" stroke-width="1.5" fill="none" d="M392.82,793.27L547.68,87.29"></path><path stroke="black" stroke-width="1.5" fill="white" class="arrowfront" d="M-1,0L15,5L15,-5Z" transform="translate(547.6767814652194,87.29499354426453) rotate(102.37219487755944)"></path></g><g class="path" style="cursor: move;"><path stroke="black" stroke-width="1.5" fill="none" d="M370.50,802.29L276.28,767.19"></path><path stroke="black" stroke-width="1.5" fill="white" class="arrowfront" d="M-1,0L15,5L15,-5Z" transform="translate(276.2769396456426,767.1870637269915) rotate(20.43180235169873)"></path></g><g transform="translate(286.99999999999994,135)" style="cursor: move;"><path fill-opacity="0.7" stroke-width="2" z-index="1" d="M 0 0 m 20, 0 a 20,15 0 1,1 -40,0 a 20,15 0 1,1 40,0" fill="#00a2e0" stroke="#00a2e0"></path><rect class="textbg" fill="#ffffff" width="26.796875" height="17" x="-13.34375" y="21"></rect><text class="nodelabel" y="35" text-anchor="middle">age</text></g><g transform="translate(1048,157.99999999999994)" style="cursor: move;"><path fill-opacity="0.7" stroke-width="2" z-index="1" d="M 0 0 m 20, 0 a 20,15 0 1,1 -40,0 a 20,15 0 1,1 40,0" fill="#00a2e0" stroke="#00a2e0"></path><rect class="textbg" fill="#ffffff" width="94.375" height="17" x="-46.6875" y="21"></rect><text class="nodelabel" y="35" text-anchor="middle">cons.conf.idx</text></g><g transform="translate(1177,272.99999999999994)" style="cursor: move;"><path fill-opacity="0.7" stroke-width="2" z-index="1" d="M 0 0 m 20, 0 a 20,15 0 1,1 -40,0 a 20,15 0 1,1 40,0" fill="#00a2e0" stroke="#00a2e0"></path><rect class="textbg" fill="#ffffff" width="98.8125" height="17" x="-48.90625" y="21"></rect><text class="nodelabel" y="35" text-anchor="middle">cons.price.idx</text></g><g transform="translate(574,824)" style="cursor: move;"><path fill-opacity="0.7" stroke-width="2" z-index="1" d="M 0 0 m 20, 0 a 20,15 0 1,1 -40,0 a 20,15 0 1,1 40,0" fill="#00a2e0" stroke="#00a2e0"></path><rect class="textbg" fill="#ffffff" width="48.59375" height="17" x="-24.015625" y="21"></rect><text class="nodelabel" y="35" text-anchor="middle">default</text></g><g transform="translate(1248,426.00000000000006)" style="cursor: move;"><path fill-opacity="0.7" stroke-width="2" z-index="1" d="M 0 0 m 20, 0 a 20,15 0 1,1 -40,0 a 20,15 0 1,1 40,0" fill="#00a2e0" stroke="#00a2e0"></path><rect class="textbg" fill="#ffffff" width="89.03125" height="17" x="-44.453125" y="21"></rect><text class="nodelabel" y="35" text-anchor="middle">emp.var.rate</text></g><g transform="translate(844,78.99999999999997)" style="cursor: move;"><path fill-opacity="0.7" stroke-width="2" z-index="1" d="M 0 0 m 20, 0 a 20,15 0 1,1 -40,0 a 20,15 0 1,1 40,0" fill="#00a2e0" stroke="#00a2e0"></path><rect class="textbg" fill="#ffffff" width="87.265625" height="17" x="-43.578125" y="21"></rect><text class="nodelabel" y="35" text-anchor="middle">nr.employed</text></g><g transform="translate(252.99999999999991,760)" style="cursor: move;"><path fill-opacity="0.7" stroke-width="2" z-index="1" d="M 0 0 m 20, 0 a 20,15 0 1,1 -40,0 a 20,15 0 1,1 40,0" fill="#00a2e0" stroke="#00a2e0"></path><rect class="textbg" fill="#ffffff" width="41.90625" height="17" x="-20.890625" y="21"></rect><text class="nodelabel" y="35" text-anchor="middle">single</text></g><g transform="translate(552.7477197686147,67.72770853307766)" style="cursor: move;"><path fill-opacity="0.7" stroke-width="2" z-index="1" d="M 0 0 m 20, 0 a 20,15 0 1,1 -40,0 a 20,15 0 1,1 40,0" fill="#00a2e0" stroke="#000000"></path><rect class="textbg" fill="#ffffff" width="9" height="17" x="-4" y="21"></rect><text class="nodelabel" y="35" text-anchor="middle">y</text><path d="M-2,-6L2,-6L2,6L-2,6Z" fill="#000000"></path></g><g transform="translate(151.99999999999997,232.99999999999994)" style="cursor: move;"><path fill-opacity="0.7" stroke-width="2" z-index="1" d="M 0 0 m 20, 0 a 20,15 0 1,1 -40,0 a 20,15 0 1,1 40,0" fill="#00a2e0" stroke="#00a2e0"></path><rect class="textbg" fill="#ffffff" width="22.453125" height="17" x="-11.671875" y="21"></rect><text class="nodelabel" y="35" text-anchor="middle">job</text></g><g transform="translate(389,808)" style="cursor: move;"><path fill-opacity="0.7" stroke-width="2" z-index="1" d="M 0 0 m 20, 0 a 20,15 0 1,1 -40,0 a 20,15 0 1,1 40,0" fill="#00a2e0" stroke="#00a2e0"></path><rect class="textbg" fill="#ffffff" width="69.484375" height="17" x="-34.6875" y="21"></rect><text class="nodelabel" y="35" text-anchor="middle">education</text></g></svg>